<?xml version="1.0" encoding="iso-8859-1"?>
<!-- Uploaded to: SVG Repo, www.svgrepo.com, Generator: SVG Repo Mixer Tools -->
<svg fill="#000000" height="800px" width="800px" version="1.1" id="Layer_1" xmlns="http://www.w3.org/2000/svg" xmlns:xlink="http://www.w3.org/1999/xlink" 
	 viewBox="0 0 512 512" xml:space="preserve">
<g>
	<g>
		<g>
			<path d="M149.175,247.182c-14.203-3.366-17.569-5.891-17.569-11.573v-0.21c0-4.839,4.417-8.732,11.993-8.732
				c5.784,0,11.256,1.894,16.936,5.575c1.052,0.631,2.105,0.947,3.367,0.947c3.365,0,6.1-2.63,6.1-5.997
				c0-2.525-1.368-4.314-2.841-5.154c-6.628-4.418-14.095-6.838-23.354-6.838c-14.625,0-25.145,8.732-25.145,21.356v0.21
				c0,13.571,8.838,18.2,24.513,21.987c13.677,3.156,16.622,5.997,16.622,11.257v0.21c0,5.47-5.052,9.258-13.047,9.258
				s-14.517-2.735-20.618-7.575c-0.843-0.631-2-1.157-3.789-1.157c-3.365,0-6.1,2.63-6.1,5.997c0,2.104,1.052,3.893,2.525,4.944
				c8.205,6.102,17.674,9.258,27.669,9.258c15.464,0,26.301-8.205,26.301-21.987v-0.21
				C172.739,256.545,164.744,250.97,149.175,247.182z"/>
			<path d="M235.543,216.253h-48.919c-3.365,0-5.996,2.735-5.996,5.997s2.63,5.997,5.996,5.997h17.885v55.757
				c0,3.577,2.945,6.417,6.522,6.417c3.576,0,6.522-2.84,6.522-6.417v-55.757h17.989c3.262,0,5.891-2.735,5.891-5.997
				S238.805,216.253,235.543,216.253z"/>
			<path d="M507.614,237.939L397.449,47.127c-5.846-10.128-19.587-18.063-31.284-18.063H145.836
				c-11.695,0-25.436,7.934-31.284,18.062L4.386,237.939c-5.848,10.128-5.848,25.995,0,36.123l110.165,190.812
				c5.848,10.128,19.589,18.062,31.284,18.062h220.329c11.697,0,25.438-7.934,31.284-18.062l110.165-190.812
				C513.462,263.934,513.462,248.067,507.614,237.939z M493.598,265.97L383.433,456.783c-3.012,5.218-11.243,9.97-17.269,9.97
				H145.836c-6.025,0-14.256-4.752-17.269-9.97L18.402,265.97c-3.012-5.218-3.012-14.721,0-19.939L128.567,55.219
				c3.012-5.218,11.244-9.97,17.269-9.97h220.329c6.026,0,14.256,4.752,17.269,9.97l110.165,190.812
				C496.611,251.249,496.611,260.752,493.598,265.97z"/>
			<path d="M369.175,68.068c-1.446-2.504-4.116-4.046-7.008-4.046H149.834c-2.892,0-5.562,1.542-7.008,4.046L36.66,251.954
				c-1.446,2.503-1.446,5.589,0,8.092l106.167,183.886c1.446,2.504,4.117,4.046,7.008,4.046h212.333
				c2.892,0,5.562-1.542,7.008-4.046l106.167-183.886c1.446-2.503,1.446-5.589,0-8.092L369.175,68.068z M357.495,431.794H154.506
				L53.011,256.001L154.506,80.207h202.989L458.99,256.001L357.495,431.794z"/>
			<path d="M340.005,222.775v61.227c0,3.577,2.841,6.417,6.522,6.417c3.578,0,6.419-2.84,6.419-6.417v-17.78h14.622
				c16.203,0,29.456-8.626,29.456-25.143v-0.21c0-14.833-10.729-24.617-27.983-24.617h-22.515
				C342.845,216.253,340.005,219.094,340.005,222.775z M352.946,228.036h15.042c9.679,0,15.888,4.523,15.888,13.15v0.21
				c0,7.68-6.103,13.15-15.888,13.15h-15.042V228.036z"/>
			<path d="M285.932,214.991c-22.618,0-38.608,17.358-38.608,38.083v0.21c0,20.725,15.78,37.872,38.4,37.872
				c22.618,0,38.608-17.358,38.608-38.083v-0.21C324.332,232.138,308.553,214.991,285.932,214.991z M310.761,253.284
				c0,14.307-10.204,25.88-24.829,25.88c-14.623,0-25.038-11.782-25.038-26.09v-0.21c0-14.308,10.205-25.985,24.83-25.985
				c14.623,0,25.037,11.888,25.037,26.195V253.284z"/>
		</g>
	</g>
</g>
</svg>